<?xml version="1.0" encoding="iso-8859-1"?>
<!-- Generator: Adobe Illustrator 19.0.0, SVG Export Plug-In . SVG Version: 6.00 Build 0)  -->
<svg xmlns="http://www.w3.org/2000/svg" xmlns:xlink="http://www.w3.org/1999/xlink" version="1.1" id="Capa_1" x="0px" y="0px" viewBox="0 0 512 512" style="enable-background:new 0 0 512 512;" xml:space="preserve" width="512px" height="512px">
<g>
	<g>
		<path d="M306,42H206c-35.841,0-65,29.159-65,65v85h230v-85C371,71.159,341.841,42,306,42z M302,162h-92v-30h92V162z" fill="#666666"/>
	</g>
</g>
<g>
	<g>
		<rect y="302" width="80" height="168" fill="#666666"/>
	</g>
</g>
<g>
	<g>
		<rect y="222" width="512" height="50" fill="#666666"/>
	</g>
</g>
<g>
	<g>
		<rect x="432" y="302" width="80" height="168" fill="#666666"/>
	</g>
</g>
<g>
	<g>
		<path d="M141,302v25c0,19.299,15.701,35,35,35h65v23h-35c-19.299,0-35,15.701-35,35v16.802c-3.103,3.524-5,8.134-5,13.198    c0,11.046,8.954,20,20,20s20-8.954,20-20c0-5.064-1.897-9.675-5-13.198V420c0-2.757,2.243-5,5-5h35v21.802    c-3.103,3.524-5,8.134-5,13.198c0,11.046,8.954,20,20,20s20-8.954,20-20c0-5.064-1.897-9.675-5-13.198V415h35c2.757,0,5,2.243,5,5    v16.802c-3.103,3.524-5,8.134-5,13.198c0,11.046,8.954,20,20,20c11.046,0,20-8.954,20-20c0-5.064-1.897-9.675-5-13.198V420    c0-19.299-15.701-35-35-35h-35v-23h65c19.299,0,35-15.701,35-35v-25H141z" fill="#666666"/>
	</g>
</g>
<g>
</g>
<g>
</g>
<g>
</g>
<g>
</g>
<g>
</g>
<g>
</g>
<g>
</g>
<g>
</g>
<g>
</g>
<g>
</g>
<g>
</g>
<g>
</g>
<g>
</g>
<g>
</g>
<g>
</g>
</svg>
