<svg xmlns="http://www.w3.org/2000/svg" xmlns:xlink="http://www.w3.org/1999/xlink" viewBox="0 0 358.34 392.82"><defs><style>.cls-1{fill:url(#linear-gradient);}.cls-2{fill:url(#linear-gradient-2);}.cls-3{fill:#fff;}.cls-4{fill:url(#linear-gradient-3);}.cls-5{fill:url(#linear-gradient-4);}.cls-6{fill:url(#linear-gradient-5);}.cls-7{fill:#efefef;}</style><linearGradient id="linear-gradient" x1="234.51" y1="563.18" x2="234.51" y2="341.7" gradientTransform="translate(0 -342)" gradientUnits="userSpaceOnUse"><stop offset="0" stop-color="#fff"/><stop offset="0.26" stop-color="#f2f2f2"/><stop offset="0.75" stop-color="#e8e8e8"/><stop offset="1" stop-color="#d9d9d9"/></linearGradient><linearGradient id="linear-gradient-2" x1="168.58" y1="471.89" x2="168.58" y2="730.65" gradientTransform="translate(0 -342)" gradientUnits="userSpaceOnUse"><stop offset="0" stop-color="#fff"/><stop offset="0.87" stop-color="#e3e3e3"/></linearGradient><linearGradient id="linear-gradient-3" x1="65.11" y1="687.1" x2="254.34" y2="577.85" gradientTransform="translate(0 -342)" gradientUnits="userSpaceOnUse"><stop offset="0" stop-color="#e6e6e6"/><stop offset="0.24" stop-color="#f0f0f0"/><stop offset="0.47" stop-color="#fff"/></linearGradient><linearGradient id="linear-gradient-4" x1="131.53" y1="731.6" x2="131.53" y2="622.9" gradientTransform="translate(0 -342)" gradientUnits="userSpaceOnUse"><stop offset="0" stop-color="#e0e0e0"/><stop offset="1" stop-color="#fff"/></linearGradient><linearGradient id="linear-gradient-5" x1="43.23" y1="619.08" x2="43.93" y2="619.08" gradientTransform="translate(0 -342)" gradientUnits="userSpaceOnUse"><stop offset="0" stop-color="#fff"/><stop offset="1"/></linearGradient></defs><title>Asset 12</title><g id="Layer_2" data-name="Layer 2"><g id="origami"><g id="wA63aF.tif"><path class="cls-1" d="M289.87,46.35c0-1.2,0-3.59-2.4-4.49-8.09-4.19,0-29,8.09-35.63a42.15,42.15,0,0,1,9-5.09c4.49-1.8,8.09-1.5,9,1.2,5.69,30.84-13.77,85.94-18.27,99.12a82.77,82.77,0,0,1-10.78,20.36c-3,3.89-4.19,7.19-3,11.68,2.4,8.38,1.2,17.07.3,25.45-1.5,13.77-4.49,27.85-10.18,40.43-3.59,8.09-9.28,19.16-17.67,21.56,1.2-8.09,1.2-8.09,0-13.18-2.7-14.67-6.89-28.45-15.57-40.43a32.19,32.19,0,0,0-25.15-13.77c-20.06-1.5-37.73,4.19-54.8,13.77-1.2.3-1.8,1.2-3.59,1.8-1.2-6.29.9-12,3-17.37,4.19-9.28,10.18-17.07,17.07-24.26,12-12.28,25.15-22.76,41-29.35,4.19-1.5,6.29-3.59,7.79-8.09,3-10.18,7.19-15,12.28-21.86,8.68-14.07,39.83-48.51,58.39-61.09,6.89-5.09,5.39-.3,1.2,6.89C292,20.3,289,36.77,287.77,41.56h-3.59C270.41,45.75,256,75.4,256,91.87c0,5.39,3.59,6.89,7.79,4.49C267.41,94.26,289,78.69,289.87,46.35Z"/></g><g id="xEMTE6.tif"><path class="cls-2" d="M264.12,387.43c-1.2,1.5-1.8,1.2-72.47,1.2H95.82c-3.89,0-8.38-9.58-15.57-21.56C44,304.48,14.37,252.37,5.69,238.3c-.9-9.28,24-37.43,61.69-108.4-1.2-1.2-5.69,93.43,73.67,71.87a139.63,139.63,0,0,0,30.24-16.17,144.54,144.54,0,0,0,13.48-10.18,20.93,20.93,0,0,1,13.18-5.69c12.88-1.2,23.66,2.7,31.74,13.48,4.19,5.69,3.89,12.28,2.4,18.87-2.4,10.48-4.19,21.26-3.59,32,.9,13.48,4.49,25.45,14.37,35a59.05,59.05,0,0,0,27.55,15.57c16.47,4.19,32.34,1.2,47.91-5.09,4.49-1.8,9-3.89,13.18-5.69h0c-1.8,5.39-5.39,10.18-8.38,14.67-8.38,14.67-17.67,29.35-26.35,44-6.59,11.68-13.48,23.06-20.36,34.74C276.39,366.76,264.42,387.13,264.12,387.43Z"/><path class="cls-3" d="M229.38,353.59a.29.29,0,0,1,.3-.3c.3.3,0,.3-.3.3Z"/></g><g id="CgVj0D.tif"><path class="cls-4" d="M303.64,321.25c.3,1.2-.3,1.8-1.2,2.7-8.09,13.18-15.87,26.35-24,39.83-3,5.39-10.18,17.67-13.18,22.76-2.7,4.19-12.88,2.7-33.24,2.7-27.55,0-27.55,0-53.6-.3H118c-30.84,0-28.15-.9-38.93-20.06-11.68-20.36-31.74-56.3-39.83-70.37-5.69-10.18-25.15-44.32-33.84-59.89-1.5-2.7,2.7-24,20.06-26.35,4.49-1.8,10.18-2.4,15-2.7H53.3a115.67,115.67,0,0,1,23.06,2.7c24.56,5.09,47.61,14.37,66.78,31.74,12.28,10.78,22.76,23.06,32.94,35.93,6.89,9.28,13.77,18.57,21.56,27,9.28,10.48,19.76,19.76,31.74,26.65,9.58,5.69,20.36,7.19,31.14,5.69,15.57-1.8,28.45-9,41-17.67.9,0,1.5-.3,2.1-.3Z"/><path class="cls-3" d="M208.42,365.27l.3-.3v.3Z"/></g><g id="omNHVQ.tif"><path class="cls-5" d="M229.38,374.25A33.91,33.91,0,0,1,218.9,388c-.9.3-1.5.9-2.4.9H184.16c0-1.2-10.78,0-11.68,0-11.68.3-18.57,0-33.84,0-19.16,0-23.06.9-40.13-.3a8.47,8.47,0,0,1-5.39-2.7c-5.69-7.79-15-25.15-17.37-28.45-1.5-2.7-15-26.65-42.52-76.06-1.8-3.89,12.28,14.37,62,21.86,4.19.3,8.09.9,12.28,1.2,7.79.9,15,1.5,22.76,2.4,15.87,1.5,31.74,3.59,46.71,10.18a111.14,111.14,0,0,1,35.93,24c7.79,7.79,14.37,16.17,17.07,27.55C229.68,370.66,229.68,372.45,229.38,374.25Z"/><path class="cls-6" d="M43.12,277.53v-.9c.3,0,.3,0,.9.3A2.3,2.3,0,0,1,43.12,277.53Z"/></g><g id="fbSGIH.tif"><path class="cls-7" d="M0,237.1a24.73,24.73,0,0,0,4.19-6.59C32.34,182,60.19,133.19,88.34,85c.3-.9,1.2-1.5,1.2-2.7H209.92c.9,1.5,2.4,2.7,1.2,4.49s-2.7,1.5-4.49,1.5H96.72A4.38,4.38,0,0,0,92.23,91c-27.85,47.91-55.1,95.82-82.95,144-1.2,1.8-1.2,3,0,5.09C37.13,288.31,65,336.22,92.53,384.43c.9,1.5,1.8,1.8,3.89,1.8H263.22a4.32,4.32,0,0,0,3.89-2.4Q308.44,312,350.06,240.39a6,6,0,0,0,0-6.29c-19.16-32.94-38.33-65.88-57.2-99.12-1.2-2.4-3-4.19-.3-6.59,1.8-1.5,3.59-.3,5.69,3.59,19.76,34.44,39.83,68.57,59.29,102.71,1.2,1.8.9,3,0,5.09-29,50.31-57.79,100.32-86.84,150.62a4.52,4.52,0,0,1-4.19,2.4H93.13c-3,0-4.19-1.5-5.39-3.89C59.29,339.51,30.54,290.1,2.1,240.69c-.6-.9-.9-2.4-2.1-3Z"/></g></g></g></svg>