<?xml version="1.0" encoding="utf-8"?>
<!-- Generator: Adobe Illustrator 21.0.2, SVG Export Plug-In . SVG Version: 6.00 Build 0)  -->
<svg version="1.1" id="Capa_1" xmlns="http://www.w3.org/2000/svg" xmlns:xlink="http://www.w3.org/1999/xlink" x="0px" y="0px"
	 viewBox="0 0 512 512" style="enable-background:new 0 0 512 512;" xml:space="preserve">
<style type="text/css">
	.st0{fill:#CCCCCC;}
	.st1{fill:#848484;}
	.st2{fill:#1281E1;}
	.st3{fill:#56A8EE;}
	.st4{fill:#DDDDDD;}
	.st5{fill:#DBD9DC;}
	.st6{fill:#FFFFFF;}
	.st7{fill:#005FBB;}
</style>
<rect x="199" y="203" class="st0" width="114.1" height="97.8"/>
<path class="st1" d="M199,243.3c16.5,10.6,36,16.8,57,16.8c21,0,40.6-6.2,57-16.8V203H199V243.3z"/>
<path class="st2" d="M420.6,504.5l6.4-168.5c0.8-20.9-11.7-40-31.3-47.6L321.6,263c-3-1-6.5,0.1-7.9,3
	c-10.9,20.7-32.7,34.8-57.7,34.8s-46.8-14.1-57.7-34.8c-1.5-2.8-4.9-4-7.9-3l-74.2,25.4C96.7,296,84.1,315.1,84.9,336l6.4,168.5
	H420.6z"/>
<g>
	<path class="st3" d="M158.2,374.1l-66-65.6c-5,8.1-7.7,17.6-7.3,27.6l6.4,168.5h66.9V374.1z"/>
	<path class="st3" d="M353.8,374.1l66-65.6c5,8.1,7.7,17.6,7.3,27.6l-6.4,168.5h-66.9V374.1z"/>
</g>
<path class="st4" d="M345.6,121.6V97.1c0-49.5-40.1-89.6-89.6-89.6s-89.6,40.1-89.6,89.6v24.4h-0.3c0,0,0,0,0,0
	c-0.9,0-1.8,0.1-2.7,0.3c-7.9,1.5-13.3,9.1-13.3,17.2v5.9c0,7.8,5,15.1,12.6,16.9c1.7,0.4,3.4,0.5,5,0.4c4.1-0.3,7.6,2.6,8.3,6.6
	c6.9,38,40.1,66.8,80.1,66.8s73.1-28.8,80.1-66.8c0.7-3.9,4-6.7,7.9-6.6h1.7c9,0,16.3-7.3,16.3-16.3v-8.1
	C361.9,128.9,354.6,121.6,345.6,121.6z"/>
<g>
	<path class="st0" d="M207.1,154.2V89c0-36.1,21.4-67.1,52.1-81.3c-1.1,0-2.1-0.2-3.2-0.2c-49.5,0-89.6,40.1-89.6,89.6v24.4h-0.3
		c0,0,0,0,0,0c-0.9,0-1.8,0.1-2.7,0.3c-7.9,1.5-13.3,9.1-13.3,17.2v5.9c0,7.8,5,15.1,12.6,16.9c1.7,0.4,3.4,0.5,5,0.4
		c4.1-0.3,7.6,2.6,8.3,6.6c6.9,38,40.1,66.8,80.1,66.8c1.1,0,2.2-0.1,3.3-0.1C228.5,221.3,207.1,190.3,207.1,154.2z"/>
	<path class="st0" d="M256,7.5c-49.5,0-89.6,40.1-89.6,89.6v24.4h10.8c3.3,0,6.3-2,7.6-5.1l10.1-25.4c2.5-6.2,8.5-10.2,15.1-10.2h92
		c6.7,0,12.7,4.1,15.1,10.2l10.1,25.4c1.2,3.1,4.2,5.1,7.6,5.1h10.8V97.1C345.6,47.6,305.5,7.5,256,7.5z"/>
</g>
<path class="st1" d="M166.4,97.1v24.4h10.8c3.3,0,6.3-2,7.6-5.1l10.1-25.4c2.2-5.4,7-9,12.6-9.9c2.8-32.7,23.2-60.4,51.7-73.5
	c-1.1,0-2.1-0.2-3.2-0.2C206.5,7.5,166.4,47.6,166.4,97.1z"/>
<path class="st5" d="M346.5,504.5h-181c-8.6,0-15.8-6.8-16.3-15.4L142.9,375c-0.5-9.3,6.9-17.2,16.3-17.2h193.7
	c9.4,0,16.8,7.9,16.3,17.2l-6.3,114.1C362.3,497.7,355.2,504.5,346.5,504.5z"/>
<circle class="st6" cx="256" cy="435.2" r="20.4"/>
<path class="st7" d="M256,333.4c41.3,0,76.5-25.6,90.8-61.7l-25.2-8.6c-3-1-6.5,0.1-7.9,3c-10.9,20.7-32.7,34.8-57.7,34.8
	s-46.8-14.1-57.7-34.8c-1.5-2.8-4.9-4-7.9-3l-25.2,8.6C179.5,307.8,214.7,333.4,256,333.4z"/>
<path d="M443.4,497h-15.3l6.4-160.7c1-24.1-13.5-46.2-36-54.9c-0.1,0-0.2-0.1-0.3-0.1l-77.7-26.7v-39.1c11.5-12.1,19.7-27.6,22.9-45
	c0-0.2,0.4-0.5,0.5-0.6c2.1,0.2,4.3,0,6.5-0.4c11-2.3,19-12.5,19-24.4v-6.3c0-10.7-6.7-20-16.3-23.3V97.1C353.1,43.6,309.6,0,256,0
	s-97.1,43.6-97.1,97.1v18.4c-9.6,3.2-16.3,12.5-16.3,23.4v6.3c0,11.9,8,22.1,19,24.4c2.1,0.4,4.3,0.6,6.4,0.4c0.2,0,0.6,0.4,0.6,0.6
	c3.2,17.4,11.4,32.9,22.9,45v39.1l-77.7,26.7c-0.1,0-0.2,0.1-0.3,0.1c-22.5,8.7-37,30.7-36,54.9L83.9,497H68.6
	c-4.1,0-7.5,3.4-7.5,7.5s3.4,7.5,7.5,7.5h374.8c4.1,0,7.5-3.4,7.5-7.5S447.5,497,443.4,497z M370.3,489.5l6.3-114.1
	c0.2-3.9-0.5-7.7-2.1-11.2l43.1-43.1c1.5,4.6,2.2,9.5,2,14.5L413.1,497h-44.5C369.5,494.7,370.1,492.2,370.3,489.5z M206.5,228.3
	c14.2,9.6,31.3,15.1,49.5,15.1s35.3-5.5,49.5-15.1v36.9c-10.3,17.3-29,28.1-49.5,28.1s-39.2-10.8-49.5-28.1L206.5,228.3L206.5,228.3
	z M167,155c-0.8,0.1-1.6,0-2.4-0.2c-4-0.8-7-5-7-9.7v-6.3c0-4.7,3.1-8.8,7.1-9.5c2.7-0.5,4.8,0.3,6,1c3.6,2.1,8.2,0.9,10.3-2.7
	c2.1-3.6,0.9-8.2-2.7-10.3c-1.4-0.8-2.9-1.5-4.4-2V97.1c0-45.3,36.8-82.1,82.1-82.1s82.1,36.8,82.1,82.1v18
	c-0.4,0.1-0.9,0.2-1.3,0.3c-4,0.9-6.5,5-5.6,9c1,4,5,6.5,9,5.6c2.8-0.7,5.7-0.7,7-0.5c4.1,0.8,7.1,4.8,7.1,9.4v6.3
	c0,4.7-3,8.9-7,9.7c-0.8,0.2-1.6,0.2-2.4,0.2c-7.7-0.6-14.9,5.1-16.4,12.8c-6.4,35.1-37,60.5-72.7,60.5s-66.2-25.4-72.7-60.5
	C181.9,160.1,174.7,154.5,167,155z M118.8,295.5L161,281c17.4,36.5,54.3,59.9,95,59.9c14.6,0,28.8-3,42.1-8.8
	c3.8-1.7,5.5-6.1,3.9-9.9c-1.7-3.8-6.1-5.5-9.9-3.9c-11.4,5-23.6,7.5-36.1,7.5c-34.3,0-65.4-19.4-80.7-49.8l16.8-5.8
	c12.6,23.3,37,38,63.9,38s51.2-14.7,63.9-38l16.8,5.8c-5.1,10.1-12.1,19.3-20.5,26.8c-3.1,2.8-3.3,7.5-0.6,10.6
	c1.5,1.7,3.5,2.5,5.6,2.5c1.8,0,3.6-0.6,5-1.9c10.3-9.2,18.8-20.6,24.8-33.1l42.2,14.5c6.7,2.6,12.4,6.8,16.8,12l-45.7,45.7
	c-3.5-1.9-7.4-2.9-11.4-2.9H159.2c-4,0-7.8,1-11.3,2.9L102,307.6C106.4,302.3,112.1,298.1,118.8,295.5z M92.4,335.7
	c-0.2-5,0.5-9.9,2-14.5l43.1,42.9c-1.6,3.5-2.4,7.4-2.2,11.4l6.3,114.1c0.1,2.6,0.7,5.1,1.6,7.5H98.9L92.4,335.7z M165.5,497
	c-4.7,0-8.5-3.6-8.8-8.3l-6.3-114.1c-0.1-2.4,0.7-4.8,2.4-6.5c1.7-1.8,3.9-2.8,6.4-2.8h193.7c2.4,0,4.7,1,6.4,2.8
	c1.7,1.8,2.5,4.1,2.4,6.5l-6.3,114.1c-0.3,4.7-4.1,8.3-8.8,8.3H165.5z"/>
<path d="M256,407.4c-15.4,0-27.9,12.5-27.9,27.9c0,15.4,12.5,27.9,27.9,27.9s27.9-12.5,27.9-27.9C283.9,419.9,271.4,407.4,256,407.4
	z M256,448.1c-7.1,0-12.9-5.8-12.9-12.9c0-7.1,5.8-12.9,12.9-12.9s12.9,5.8,12.9,12.9C268.9,442.3,263.1,448.1,256,448.1z"/>
</svg>
