<?xml version="1.0" encoding="utf-8"?>
<!-- Generator: Adobe Illustrator 21.0.2, SVG Export Plug-In . SVG Version: 6.00 Build 0)  -->
<svg version="1.1" id="Layer_1" xmlns="http://www.w3.org/2000/svg" xmlns:xlink="http://www.w3.org/1999/xlink" x="0px" y="0px"
	 viewBox="0 0 306.6 423.1" style="enable-background:new 0 0 306.6 423.1;" xml:space="preserve">
<style type="text/css">
	.st0{fill:#DDDDDD;stroke:#000000;stroke-width:10.7938;stroke-miterlimit:10;}
	.st1{fill:#3F3A34;}
	.st2{fill:#0478D9;}
	.st3{fill:#DDDDDD;}
	.st4{fill:#CCCCCC;}
	.st5{fill:#848484;}
	.st6{fill:#57A9EF;stroke:#000000;stroke-width:10;stroke-miterlimit:10;}
	.st7{fill:#3381BC;stroke:#000000;stroke-width:8.82;stroke-miterlimit:10;}
</style>
<title>freelancer</title>
<g id="Layer_2">
	<g id="Capa_1">
		<path class="st0" d="M187,223.3l0.2-16.8l-0.9-14.2l-1.8-5.3L161,202l-19.2,1.7l-28.9-5.6l-17.1-12.4l1,38.8l-77.5,26.9v-37.2
			c0.1-20.1,16.4-36.4,36.5-36.5h171.7c20.1,0.1,36.4,16.4,36.5,36.5V250L187,223.3z"/>
		<path class="st1" d="M269.6,213.8"/>
		<path class="st1" d="M81.1,365.8"/>
		<polyline points="212,415 240.2,415 240.2,247.1 212,235.1 		"/>
		<polygon class="st2" points="217.9,415 233.9,415 233.9,245.4 217.9,237.8 		"/>
		<polyline points="71.7,235.1 43.6,247.1 43.6,415 71.7,415 		"/>
		<polygon class="st2" points="65.8,237.8 49.8,245.4 49.8,415 65.8,415 		"/>
		<path class="st1" d="M208.5,365.8"/>
		<path class="st3" d="M212.8,113.2V93.8c0-39.3-31.8-71.1-71.1-71.1S70.6,54.5,70.6,93.8v19.4h-0.2c-0.7,0-1.4,0.1-2.1,0.2
			c-6.3,1.2-10.6,7.2-10.6,13.7v4.7c0,6.2,4,12,10,13.4c1.3,0.3,2.7,0.4,4,0.3c3.2-0.2,6.1,2.1,6.6,5.2c6.4,35.1,40.1,58.4,75.2,52
			c26.5-4.8,47.2-25.5,52-52c0.5-3.1,3.2-5.3,6.3-5.2h1.3c7.1,0,12.9-5.8,12.9-12.9l0,0v-6.4C225.8,119,220,113.3,212.8,113.2z"/>
		<path class="st4" d="M102.9,139.1V87.4c0-27.7,16.2-52.9,41.4-64.5c-0.9,0-1.7-0.2-2.5-0.2c-39.3,0-71.1,31.8-71.1,71.1
			c0,0,0,0,0,0v19.4h-0.2c-0.7,0-1.4,0.1-2.1,0.2c-6.3,1.2-10.6,7.2-10.6,13.7v4.7c0,6.2,4,12,10,13.4c1.3,0.3,2.7,0.4,4,0.3
			c3.2-0.2,6.1,2.1,6.6,5.2c5.6,30.7,32.4,53,63.6,53c0.9,0,1.8-0.1,2.6-0.1C119.2,192.1,102.9,166.9,102.9,139.1z"/>
		<path class="st4" d="M141.7,22.7c-39.3,0-71.1,31.8-71.1,71.1c0,0,0,0,0,0v19.4h8.6c2.6,0,5-1.6,6-4l8-20.2c2-4.9,6.7-8.1,12-8.1
			h73c5.3,0,10,3.2,12,8.1l8,20.2c1,2.4,3.4,4,6,4h8.6V93.8C212.7,54.6,181,22.7,141.7,22.7z"/>
		<path class="st5" d="M70.6,93.8v19.4h8.6c2.6,0,5-1.6,6-4l8-20.2c1.7-4.2,5.5-7.2,10-7.9c2.2-25.4,17.9-47.7,41-58.3
			c-0.9,0-1.7-0.2-2.5-0.2C102.4,22.8,70.6,54.6,70.6,93.8z"/>
		<path d="M278.3,411.2l5.1-127.6c0.8-19.1-10.7-36.7-28.6-43.6c-0.1,0-0.2-0.1-0.2-0.1L193,218.8c0,0,0,0,0-0.1v-31l0,0
			c9.4-9.9,15.7-22.3,18.2-35.7c0-0.2,0.3-0.4,0.4-0.5c1.7,0.1,3.5,0,5.2-0.3c8.7-1.8,15.1-9.9,15.1-19.4v-5
			c0.1-8.3-5.1-15.7-12.9-18.5c0,0,0,0,0-0.1V93.8c0-42.6-34.5-77.1-77.1-77.1S64.8,51.2,64.8,93.8v14.6c0,0,0,0,0,0.1
			c-7.9,2.7-13.2,10.2-13.1,18.6v5c0,9.4,6.3,17.5,15.1,19.4c1.7,0.3,3.4,0.5,5.1,0.3c0.2,0.1,0.4,0.2,0.5,0.5
			c2.5,13.4,8.8,25.8,18.2,35.7l0,0v31c0,0,0,0,0,0.1l-61.7,21.2c-0.1,0-0.2,0.1-0.2,0.1C10.7,247.1-0.8,264.6,0,283.8l5.1,127.5
			l0,0c0.4,6.7,5.9,11.9,12.7,11.9h248C272.5,423.1,278,417.9,278.3,411.2L278.3,411.2z M102.4,197.9c23.7,16,54.7,16,78.5,0.1
			c0,0,0.1,0,0.1,0c0,0,0,0,0,0v29.2l0,0c-13,21.7-41.1,28.8-62.8,15.8c-6.5-3.9-11.9-9.3-15.8-15.8l0,0L102.4,197.9L102.4,197.9z
			 M71.1,139.8c-0.6,0.1-1.3,0-1.9-0.2c-3.2-0.6-5.6-4-5.6-7.7v-5c0-3.7,2.5-7,5.6-7.5c1.6-0.3,3.3,0,4.8,0.8c3,1.4,6.6,0,7.9-3
			c1.2-2.6,0.4-5.7-1.9-7.3c-1.1-0.6-2.3-1.2-3.4-1.6c0,0,0,0,0-0.1V94.9c0-36.7,29.8-66.9,66.4-66.2c35.5,0.7,63.9,29.7,63.9,65.2
			V108l-0.2,0.2c-3.3,0.3-5.7,3.2-5.4,6.5c0,0.3,0.1,0.5,0.1,0.8c0.8,3.2,3.9,5.2,7.1,4.4c1.8-0.5,3.7-0.6,5.6-0.4
			c3.4,0.8,5.8,4,5.6,7.5v5c0,3.7-2.4,7.1-5.6,7.7c-0.6,0.1-1.3,0.2-1.9,0.2c-6.3-0.3-11.8,4-13,10.2c-5.9,31.9-36.5,52.9-68.4,47.1
			c-23.9-4.4-42.6-23.1-47.1-47.1C82.8,143.8,77.3,139.4,71.1,139.8z M266.4,411.2L17,411.3l-5.1-128.1c-0.2-3.9,0.4-7.8,1.6-11.5
			l0,0l6-10.8l0,0c3.6-4.3,8.1-7.6,13.3-9.6l33.4-11.5c0,0,0.1,0,0.1,0c19.4,40.6,67.5,58.5,108.8,40.5c3-1.5,4.2-5.1,2.7-8
			c-1.4-2.8-4.6-4.1-7.5-3c-34.9,15.2-75.5,0.5-92.7-33.5c0,0,0-0.1,0-0.1c0,0,0,0,0,0l13.3-4.6c0,0,0,0,0.1,0
			c15.3,28,50.3,38.3,78.3,23.1c9.8-5.3,17.8-13.3,23.1-23.1c0,0,0,0,0.1,0l13.2,4.6c0,0,0,0.1,0,0.1c0,0,0,0,0,0
			c-4,8-9.6,15.2-16.2,21.2c-2.4,2.2-2.6,5.9-0.5,8.4c2.2,2.4,5.9,2.6,8.4,0.5c8.2-7.4,14.9-16.3,19.7-26.2c0,0,0.1,0,0.1,0
			l33.4,11.5c5.2,2,9.8,5.2,13.4,9.5l0,0l6,10.9l0,0c1.2,3.7,1.7,7.6,1.6,11.5L266.4,411.2"/>
		<path class="st6" d="M157.6,5h-32c-35.3,0-64,28.7-64,64v32h160V69C221.6,33.7,193,5,157.6,5z"/>
		<path class="st6" d="M285.6,69h-64v32h64c8.8,0,16-7.2,16-16S294.5,69,285.6,69z"/>
		<path class="st7" d="M104.8,96.4v-12c0-6.5,5-11.8,11-11.8h51.9c6.1,0,11,5.3,11,11.8v11.6"/>
	</g>
</g>
</svg>
