<svg xmlns="http://www.w3.org/2000/svg" viewBox="0 0 146.51 155.82"><defs><style>.cls-1{fill:#004f93;}.cls-2{fill:#2dbec7;}.cls-3{fill:#27b7c4;}.cls-4{fill:#1eb0c2;}.cls-5{fill:#1aabbf;}.cls-6{fill:#16a1bc;}.cls-7{fill:#13a1bb;}.cls-8{fill:#169cba;}.cls-9{fill:#1a99b9;}.cls-10{fill:#1698b9;}.cls-11{fill:#139ab9;}.cls-12{fill:#11a0bb;}.cls-13{fill:#12a5bd;}.cls-14{fill:#18abbf;}.cls-15{fill:#27b5c3;}.cls-16{fill:#2dbac5;}.cls-17{fill:#28bec6;}.cls-18{fill:#29bec6;}.cls-19{fill:#27bec6;}.cls-20{fill:#26b8c4;}.cls-21{fill:#26b3c3;}.cls-22{fill:#1cadc0;}.cls-23{fill:#1aa6be;}.cls-24{fill:#149bba;}.cls-25{fill:#1595b6;}.cls-26{fill:#1a8eb3;}.cls-27{fill:#1a8cb1;}.cls-28{fill:#1c8cb2;}.cls-29{fill:#1c92b5;}.cls-30{fill:#1995b6;}.cls-31{fill:#169bb9;}.cls-32{fill:#1fa0bc;}.cls-33{fill:#24a5be;}.cls-34{fill:#1eabc0;}.cls-35{fill:#27b0c2;}.cls-36{fill:#19a3bc;}.cls-37{fill:#1e9ebb;}.cls-38{fill:#1797b8;}.cls-39{fill:#2192b5;}.cls-40{fill:#1f8cb2;}.cls-41{fill:#1d87af;}.cls-42{fill:#1783ae;}.cls-43{fill:#1380ac;}.cls-44{fill:#1780ac;}.cls-45{fill:#1180ac;}.cls-46{fill:#1583ae;}.cls-47{fill:#1786ae;}.cls-48{fill:#1b8bb1;}.cls-49{fill:#1d96b7;}.cls-50{fill:#179bba;}.cls-51{fill:#18a2bc;}.cls-52{fill:#20acc0;}</style></defs><title>Asset 1</title><g id="Layer_2" data-name="Layer 2"><g id="Layer_1-2" data-name="Layer 1"><g id="_Group_" data-name="&lt;Group&gt;"><g id="_Group_2" data-name="&lt;Group&gt;"><path id="_Path_" data-name="&lt;Path&gt;" class="cls-1" d="M99,118.54a5.36,5.36,0,0,1-5.2,3.9c-2.93,0-5.86,0-8.79,0-3.15,0-5.12-1.62-5.9-4.84a31,31,0,0,1-2.81,3.7A8,8,0,0,1,67.44,123a8.69,8.69,0,0,1-5.79-7.61c-.09-.94,0-1.39,1.19-1,5.9,1.77,10.94-.17,15.56-3.78a2.05,2.05,0,0,0,.68-1.91c0-4.81,0-9.62,0-14.42,0-1.2.38-1.47,1.51-1.44,6.23.17,10.84,4.94,10.91,11.41,0,3.26,0,6.52,0,9.78,0,2,.89,3,2.86,3,1.1,0,2.22-.07,3.31,0s1.26-.4,1.25-1.35c0-5.86,0-11.72-.06-17.57,0-1.46.47-1.72,1.79-1.69,5.93.16,10.57,4.9,10.72,11.28.11,4.53-.06,9.06-.05,13.59,0,.9-.32,1.12-1.16,1.09-1.93-.05-3.87,0-5.8,0C101.81,122.36,100.18,120.9,99,118.54Z"/><path id="_Path_2" data-name="&lt;Path&gt;" class="cls-1" d="M64.7,105.66c-1.35,3.12-3.73,3.93-6.67,3.82-2.26-.08-4.53,0-6.8,0-3.75,0-5.44-1.24-6.58-4.9a16,16,0,0,1-3,3.95,8,8,0,0,1-8.94,1.4,8.77,8.77,0,0,1-5.53-7.63c-.08-.82,0-1.25,1.06-.93,5.89,1.81,10.94,0,15.61-3.6a2.17,2.17,0,0,0,.85-2c0-4.75,0-9.5,0-14.25,0-1.16.18-1.61,1.5-1.6A10.94,10.94,0,0,1,57,90.81c.07,3.42,0,6.85,0,10.28,0,1.94.86,2.84,2.77,2.94,4.67.24,4.67.24,4.67-4.38,0-4.86.07-9.73,0-14.59,0-1.47.6-1.66,1.76-1.59a11,11,0,0,1,10.63,10.3c.25,4.91.07,9.83.11,14.75,0,.71-.24,1-1,1-2.1,0-4.21.1-6.3,0A5.73,5.73,0,0,1,64.7,105.66Z"/><path id="_Path_3" data-name="&lt;Path&gt;" class="cls-1" d="M30,73c0-5.41.06-10.83,0-16.24,0-1.46.47-1.72,1.78-1.66A11.2,11.2,0,0,1,42.4,65.8c.15,9.78,0,19.56.07,29.34,0,.93-.35,1.1-1.17,1.08-1.82,0-3.65,0-5.47,0-3.27-.11-5.55-2-5.66-5.29C30,84.94,30.13,79,30.13,73Z"/><path id="_Path_4" data-name="&lt;Path&gt;" class="cls-1" d="M.09,86.26c.7.34.89,1,1.25,1.42A10.22,10.22,0,0,0,14.21,90.1a2.36,2.36,0,0,0,1.37-2.34c-.06-7.95,0-15.9-.07-23.84,0-1.28.36-1.54,1.56-1.51A10.91,10.91,0,0,1,27.9,73.12c.09,5.52,0,11,0,16.56a6.51,6.51,0,0,1-3.49,5.83A16.9,16.9,0,0,1,0,86.7C0,86.61,0,86.49.09,86.26Z"/><path id="_Path_5" data-name="&lt;Path&gt;" class="cls-1" d="M109.8,134.35c-.23.26-.4.47-.59.66-1.64,1.64-3.31,3.25-4.9,4.94-.67.71-1,.46-1.56-.1-1.49-1.55-3.06-3-4.55-4.59-.54-.57-.89-.6-1.45,0-1.48,1.56-3.07,3-4.54,4.6-.63.68-1,.72-1.66,0-1.43-1.54-3-2.94-4.42-4.49-.73-.79-1.14-.69-1.82,0-1.43,1.54-3,3-4.42,4.48-.57.6-.93.69-1.54,0q-2.33-2.47-4.8-4.81c-.65-.62-.6-1,0-1.57,1.64-1.56,3.25-3.16,4.8-4.81.64-.69,1-.49,1.53.07,1.45,1.51,3,2.94,4.43,4.48.68.73,1.09.82,1.81,0,1.34-1.47,2.87-2.76,4.17-4.26.91-1.05,1.45-.83,2.26.06,1.26,1.39,2.7,2.62,3.95,4,.77.86,1.21.71,1.92,0,1.44-1.52,3-2.94,4.47-4.43.47-.48.77-.58,1.3,0,1.64,1.72,3.35,3.37,5,5.05C109.42,133.9,109.59,134.1,109.8,134.35Z"/><path id="_Path_6" data-name="&lt;Path&gt;" class="cls-1" d="M44.78,119.73a53.37,53.37,0,0,0-5.21,5c-.69.68-1.09.84-1.82,0-1.45-1.58-3-3.09-4.55-4.56-.63-.6-.63-1,0-1.56q2.4-2.27,4.67-4.67c.63-.66,1-.52,1.58,0a60.71,60.71,0,0,0,5.33,5.14A.34.34,0,0,1,44.78,119.73Z"/><path id="_Path_7" data-name="&lt;Path&gt;" class="cls-1" d="M44.78,119.73v-.54c1.71-1.72,3.44-3.41,5.12-5.16.54-.56.88-.61,1.44,0,1.56,1.63,3.16,3.23,4.79,4.79.52.5.52.82,0,1.32-1.63,1.57-3.23,3.16-4.79,4.79-.56.59-.9.54-1.44,0C48.23,123.15,46.49,121.45,44.78,119.73Z"/></g><circle id="_Path_8" data-name="&lt;Path&gt;" class="cls-2" cx="9.11" cy="45.18" r="2.17"/><circle id="_Path_9" data-name="&lt;Path&gt;" class="cls-3" cx="14.98" cy="33.99" r="2.29"/><circle id="_Path_10" data-name="&lt;Path&gt;" class="cls-4" cx="22.95" cy="25.56" r="2.53"/><circle id="_Path_11" data-name="&lt;Path&gt;" class="cls-5" cx="33.26" cy="16.83" r="2.89"/><circle id="_Path_12" data-name="&lt;Path&gt;" class="cls-6" cx="44.46" cy="10.48" r="3.17"/><circle id="_Path_13" data-name="&lt;Path&gt;" class="cls-7" cx="55.7" cy="5.65" r="3.44"/><circle id="_Path_14" data-name="&lt;Path&gt;" class="cls-8" cx="70.4" cy="3.82" r="3.82"/><circle id="_Path_15" data-name="&lt;Path&gt;" class="cls-9" cx="84.2" cy="5.37" r="4.06"/><circle id="_Path_16" data-name="&lt;Path&gt;" class="cls-10" cx="97.42" cy="9.43" r="4.4"/><circle id="_Path_17" data-name="&lt;Path&gt;" class="cls-11" cx="109.6" cy="15.78" r="4.68"/><circle id="_Path_18" data-name="&lt;Path&gt;" class="cls-12" cx="120.11" cy="24.62" r="4.38"/><circle id="_Path_19" data-name="&lt;Path&gt;" class="cls-13" cx="129.4" cy="35.26" r="4.02"/><circle id="_Path_20" data-name="&lt;Path&gt;" class="cls-14" cx="136.26" cy="47.31" r="3.79"/><circle id="_Path_21" data-name="&lt;Path&gt;" class="cls-15" cx="140.98" cy="60.4" r="3.54"/><circle id="_Path_22" data-name="&lt;Path&gt;" class="cls-16" cx="143.32" cy="74.12" r="3.2"/><circle id="_Path_23" data-name="&lt;Path&gt;" class="cls-17" cx="140.68" cy="86.6" r="2.81"/><circle id="_Path_24" data-name="&lt;Path&gt;" class="cls-18" cx="134.71" cy="100.24" r="2.58"/><circle id="_Path_25" data-name="&lt;Path&gt;" class="cls-19" cx="128.11" cy="110.29" r="2.26"/><circle id="_Path_26" data-name="&lt;Path&gt;" class="cls-20" cx="121.28" cy="104.91" r="2.01"/><circle id="_Path_27" data-name="&lt;Path&gt;" class="cls-21" cx="126.23" cy="96.94" r="2.25"/><circle id="_Path_28" data-name="&lt;Path&gt;" class="cls-22" cx="130.82" cy="85.14" r="2.51"/><circle id="_Path_29" data-name="&lt;Path&gt;" class="cls-23" cx="131.84" cy="73.33" r="2.79"/><circle id="_Path_30" data-name="&lt;Path&gt;" class="cls-12" cx="130.71" cy="61.93" r="3.09"/><circle id="_Path_31" data-name="&lt;Path&gt;" class="cls-24" cx="126.18" cy="51.16" r="3.31"/><circle id="_Path_32" data-name="&lt;Path&gt;" class="cls-25" cx="120.18" cy="40.17" r="3.56"/><circle id="_Path_33" data-name="&lt;Path&gt;" class="cls-26" cx="112.64" cy="31.43" r="3.83"/><circle id="_Path_34" data-name="&lt;Path&gt;" class="cls-27" cx="103.81" cy="24.01" r="4.06"/><circle id="_Path_35" data-name="&lt;Path&gt;" class="cls-27" cx="93.12" cy="18.39" r="3.82"/><circle id="_Path_36" data-name="&lt;Path&gt;" class="cls-28" cx="82.08" cy="14.9" r="3.66"/><circle id="_Path_37" data-name="&lt;Path&gt;" class="cls-29" cx="70.19" cy="13.83" r="3.23"/><circle id="_Path_38" data-name="&lt;Path&gt;" class="cls-30" cx="57.99" cy="15.28" r="3.04"/><circle id="_Path_39" data-name="&lt;Path&gt;" class="cls-31" cx="47.23" cy="18.65" r="2.77"/><circle id="_Path_40" data-name="&lt;Path&gt;" class="cls-32" cx="37.39" cy="24.19" r="2.56"/><circle id="_Path_41" data-name="&lt;Path&gt;" class="cls-33" cx="28.69" cy="31.44" r="2.27"/><circle id="_Path_42" data-name="&lt;Path&gt;" class="cls-34" cx="21.13" cy="38.57" r="2.07"/><circle id="_Path_43" data-name="&lt;Path&gt;" class="cls-35" cx="15.91" cy="48.6" r="1.93"/><circle id="_Path_44" data-name="&lt;Path&gt;" class="cls-36" cx="22.29" cy="51.87" r="1.7"/><circle id="_Path_45" data-name="&lt;Path&gt;" class="cls-37" cx="26.86" cy="44.3" r="1.91"/><circle id="_Path_46" data-name="&lt;Path&gt;" class="cls-38" cx="33.64" cy="36.65" r="2.15"/><circle id="_Path_47" data-name="&lt;Path&gt;" class="cls-39" cx="41.47" cy="30.89" r="2.33"/><circle id="_Path_48" data-name="&lt;Path&gt;" class="cls-40" cx="49.76" cy="26.6" r="2.53"/><circle id="_Path_49" data-name="&lt;Path&gt;" class="cls-41" cx="59.5" cy="23.77" r="2.82"/><circle id="_Path_50" data-name="&lt;Path&gt;" class="cls-42" cx="69.56" cy="22.99" r="3.06"/><circle id="_Path_51" data-name="&lt;Path&gt;" class="cls-43" cx="79.69" cy="24.02" r="3.24"/><circle id="_Path_52" data-name="&lt;Path&gt;" class="cls-44" cx="89.32" cy="26.98" r="3.48"/><circle id="_Path_53" data-name="&lt;Path&gt;" class="cls-45" cx="98.14" cy="31.79" r="3.72"/><circle id="_Path_54" data-name="&lt;Path&gt;" class="cls-46" cx="106" cy="38.16" r="3.44"/><circle id="_Path_55" data-name="&lt;Path&gt;" class="cls-47" cx="112.67" cy="46.17" r="3.23"/><circle id="_Path_56" data-name="&lt;Path&gt;" class="cls-48" cx="117.91" cy="54.88" r="3.02"/><circle id="_Path_57" data-name="&lt;Path&gt;" class="cls-49" cx="121.3" cy="64.47" r="2.78"/><circle id="_Path_58" data-name="&lt;Path&gt;" class="cls-50" cx="122.85" cy="74.59" r="2.56"/><circle id="_Path_59" data-name="&lt;Path&gt;" class="cls-51" cx="122.09" cy="84.66" r="2.37"/><circle id="_Path_60" data-name="&lt;Path&gt;" class="cls-23" cx="119.01" cy="94.48" r="2.11"/><circle id="_Path_61" data-name="&lt;Path&gt;" class="cls-52" cx="115.27" cy="101.5" r="1.88"/><g id="_Group_3" data-name="&lt;Group&gt;"><path id="_Compound_Path_" data-name="&lt;Compound Path&gt;" class="cls-1" d="M2.45,149.39v3.83H1v-8.53H3.33a8.22,8.22,0,0,1,1.52.1,2.52,2.52,0,0,1,.85.34,2.05,2.05,0,0,1,.7.8A2.46,2.46,0,0,1,6.66,147a2.51,2.51,0,0,1-.25,1.12,2,2,0,0,1-.7.8,2.46,2.46,0,0,1-.85.33,8.42,8.42,0,0,1-1.52.1H2.45Zm.1-1.14h.4A3.84,3.84,0,0,0,4.65,148a.94.94,0,0,0,.43-.89,1,1,0,0,0-.46-1,3.5,3.5,0,0,0-1.68-.28h-.4Z"/><path id="_Compound_Path_2" data-name="&lt;Compound Path&gt;" class="cls-1" d="M12.84,153.22H11.43v-.72a2.39,2.39,0,0,1-.88.71,2.7,2.7,0,0,1-1.15.23,2.67,2.67,0,0,1-2-.8,3.09,3.09,0,0,1-.75-2.19,3,3,0,0,1,.76-2.14,2.61,2.61,0,0,1,2-.81,2.71,2.71,0,0,1,1.28.28,1.71,1.71,0,0,1,.78.81v-.9h1.41Zm-1.37-2.78a1.89,1.89,0,0,0-.44-1.33,1.61,1.61,0,0,0-1.24-.48,1.62,1.62,0,0,0-1.25.49,2.29,2.29,0,0,0,0,2.72,1.6,1.6,0,0,0,1.24.48,1.6,1.6,0,0,0,1.23-.52A1.94,1.94,0,0,0,11.47,150.44Z"/><path id="_Compound_Path_3" data-name="&lt;Compound Path&gt;" class="cls-1" d="M18.74,144.19h1.41v9H18.74v-.72a2.39,2.39,0,0,1-.88.71,2.7,2.7,0,0,1-1.15.23,2.67,2.67,0,0,1-2-.8,3.09,3.09,0,0,1-.75-2.19,3,3,0,0,1,.76-2.14,2.61,2.61,0,0,1,2-.81,2.71,2.71,0,0,1,1.28.28,1.71,1.71,0,0,1,.78.81Zm0,6.25a1.89,1.89,0,0,0-.44-1.33,1.61,1.61,0,0,0-1.24-.48,1.62,1.62,0,0,0-1.25.49,2.29,2.29,0,0,0,0,2.72,1.8,1.8,0,0,0,2.48,0A2,2,0,0,0,18.78,150.44Z"/><path id="_Compound_Path_4" data-name="&lt;Compound Path&gt;" class="cls-1" d="M21.55,145.31a.72.72,0,0,1,.26-.55,1,1,0,0,1,1.25,0,.73.73,0,0,1,.25.56.74.74,0,0,1-.25.57.89.89,0,0,1-.62.23.9.9,0,0,1-.62-.24A.73.73,0,0,1,21.55,145.31Zm.19,7.91V147.7h1.4v5.52Z"/><path id="_Compound_Path_5" data-name="&lt;Compound Path&gt;" class="cls-1" d="M29.11,144.19h1.41v9H29.11v-.72a2.39,2.39,0,0,1-.88.71,2.7,2.7,0,0,1-1.15.23,2.67,2.67,0,0,1-2-.8,3.09,3.09,0,0,1-.75-2.19,3,3,0,0,1,.76-2.14,2.61,2.61,0,0,1,2-.81,2.71,2.71,0,0,1,1.28.28,1.71,1.71,0,0,1,.78.81Zm0,6.25a1.89,1.89,0,0,0-.44-1.33,1.84,1.84,0,0,0-2.49,0,2.29,2.29,0,0,0,0,2.72,1.8,1.8,0,0,0,2.48,0A2,2,0,0,0,29.15,150.44Z"/><path id="_Compound_Path_6" data-name="&lt;Compound Path&gt;" class="cls-1" d="M37.82,153.22H36.42v-.72a2.39,2.39,0,0,1-.88.71,2.7,2.7,0,0,1-1.15.23,2.67,2.67,0,0,1-2-.8,3.09,3.09,0,0,1-.75-2.19,3,3,0,0,1,.76-2.14,2.61,2.61,0,0,1,2-.81,2.71,2.71,0,0,1,1.28.28,1.71,1.71,0,0,1,.78.81v-.9h1.41Zm-1.37-2.78a1.89,1.89,0,0,0-.44-1.33,1.84,1.84,0,0,0-2.49,0,2.29,2.29,0,0,0,0,2.72,1.79,1.79,0,0,0,2.48,0A1.94,1.94,0,0,0,36.46,150.44Z"/><path id="_Compound_Path_7" data-name="&lt;Compound Path&gt;" class="cls-1" d="M40.76,148.58a1.79,1.79,0,0,1,.6-.81,1.56,1.56,0,0,1,.92-.26,2.69,2.69,0,0,1,.59.06,3.08,3.08,0,0,1,.57.19l-.5,1.07a1.35,1.35,0,0,0-.39-.17,1.85,1.85,0,0,0-.47-.06,1.08,1.08,0,0,0-1,.5,3.46,3.46,0,0,0-.3,1.69v2.42H39.35v-5.54h1.41Z"/><path id="_Compound_Path_8" data-name="&lt;Compound Path&gt;" class="cls-1" d="M50.59,145.87v7.35H49.05v-7.35H46.53v-1.18H53.1v1.18Z"/><path id="_Compound_Path_9" data-name="&lt;Compound Path&gt;" class="cls-1" d="M58.47,150.65H53.56a1.75,1.75,0,0,0,.51,1.21,1.71,1.71,0,0,0,1.22.43,2.27,2.27,0,0,0,1.13-.26,2.2,2.2,0,0,0,.79-.83l1.18.59A3.39,3.39,0,0,1,57.12,153a3.76,3.76,0,0,1-1.79.41,3.32,3.32,0,0,1-2.35-.81,3,3,0,0,1,0-4.3,3.76,3.76,0,0,1,4.63-.07,2.76,2.76,0,0,1,.83,2.14ZM57,149.79a1.3,1.3,0,0,0-.5-.91,1.9,1.9,0,0,0-1.15-.31,1.86,1.86,0,0,0-1.11.3,1.6,1.6,0,0,0-.59.91Z"/><path id="_Compound_Path_10" data-name="&lt;Compound Path&gt;" class="cls-1" d="M64.25,149.27a2.21,2.21,0,0,0-.75-.49,2.51,2.51,0,0,0-.93-.17,1.9,1.9,0,0,0-1.38.5,2,2,0,0,0,0,2.68,2,2,0,0,0,1.44.49,2.3,2.3,0,0,0,.91-.17,1.94,1.94,0,0,0,.71-.52v1.46a3.49,3.49,0,0,1-.83.3,4.3,4.3,0,0,1-.94.1,3.36,3.36,0,0,1-2.35-.83,2.76,2.76,0,0,1-.91-2.14,2.71,2.71,0,0,1,.94-2.15,3.62,3.62,0,0,1,2.46-.82,4.28,4.28,0,0,1,.88.08,3.09,3.09,0,0,1,.75.26Z"/><path id="_Compound_Path_11" data-name="&lt;Compound Path&gt;" class="cls-1" d="M65.42,153.22v-9h1.32v4.41a2.56,2.56,0,0,1,1-.83,3.29,3.29,0,0,1,1.38-.26,3.12,3.12,0,0,1,1.17.2,1.66,1.66,0,0,1,.75.58,1.51,1.51,0,0,1,.23.53,5.32,5.32,0,0,1,.07,1.06v3.35H69.93v-2.84a2.45,2.45,0,0,0-.29-1.45,1.29,1.29,0,0,0-1-.36,2.23,2.23,0,0,0-.88.16,1.42,1.42,0,0,0-.61.46,1.18,1.18,0,0,0-.22.51,5.73,5.73,0,0,0-.06,1v2.52Z"/><path id="_Compound_Path_12" data-name="&lt;Compound Path&gt;" class="cls-1" d="M73,153.22V147.7h1.32v.9a2.56,2.56,0,0,1,1-.83,3.29,3.29,0,0,1,1.38-.26,3.12,3.12,0,0,1,1.17.2,1.66,1.66,0,0,1,.75.58,1.51,1.51,0,0,1,.23.53,5.32,5.32,0,0,1,.07,1.06v3.35H77.46v-2.84a2.45,2.45,0,0,0-.29-1.45,1.29,1.29,0,0,0-1-.36,2.23,2.23,0,0,0-.88.16,1.42,1.42,0,0,0-.61.46,1.18,1.18,0,0,0-.22.51,5.73,5.73,0,0,0-.06,1v2.52Z"/><path id="_Compound_Path_13" data-name="&lt;Compound Path&gt;" class="cls-1" d="M80,150.46a2.64,2.64,0,0,1,.26-1.14,3,3,0,0,1,.73-1,3.37,3.37,0,0,1,1.09-.63,3.91,3.91,0,0,1,2.59,0,3.37,3.37,0,0,1,1.1.65,2.94,2.94,0,0,1,.74,1,2.59,2.59,0,0,1,.25,1.12,2.69,2.69,0,0,1-.25,1.15,2.82,2.82,0,0,1-.73.95,3.56,3.56,0,0,1-1.12.66,3.82,3.82,0,0,1-2.58,0,3.37,3.37,0,0,1-1.09-.65,3,3,0,0,1-.74-1A2.63,2.63,0,0,1,80,150.46Zm5.28,0a1.75,1.75,0,0,0-.55-1.3,2,2,0,0,0-2.69,0,1.81,1.81,0,0,0,0,2.6,2,2,0,0,0,2.69,0A1.74,1.74,0,0,0,85.31,150.48Z"/><path id="_Compound_Path_14" data-name="&lt;Compound Path&gt;" class="cls-1" d="M88.08,153.22v-9h1.4v9Z"/><path id="_Compound_Path_15" data-name="&lt;Compound Path&gt;" class="cls-1" d="M90.77,150.46a2.64,2.64,0,0,1,.26-1.14,3,3,0,0,1,.73-1,3.37,3.37,0,0,1,1.09-.63,3.91,3.91,0,0,1,2.59,0,3.37,3.37,0,0,1,1.1.65,2.94,2.94,0,0,1,.74,1,2.59,2.59,0,0,1,.25,1.12,2.69,2.69,0,0,1-.25,1.15,2.82,2.82,0,0,1-.73.95,3.56,3.56,0,0,1-1.12.66,3.82,3.82,0,0,1-2.58,0,3.37,3.37,0,0,1-1.09-.65,3,3,0,0,1-.74-1A2.63,2.63,0,0,1,90.77,150.46Zm5.28,0a1.75,1.75,0,0,0-.55-1.3,2,2,0,0,0-2.69,0,1.81,1.81,0,0,0,0,2.6,2,2,0,0,0,2.69,0A1.74,1.74,0,0,0,96,150.48Z"/><path id="_Compound_Path_16" data-name="&lt;Compound Path&gt;" class="cls-1" d="M104.53,152.88a3,3,0,0,1-.72,2.28,3.55,3.55,0,0,1-2.42.66,3.75,3.75,0,0,1-2-.48,1.49,1.49,0,0,1-.77-1.28h1.51a.66.66,0,0,0,.37.54,2,2,0,0,0,.94.19,1.91,1.91,0,0,0,1.29-.36,1.55,1.55,0,0,0,.4-1.19v-.73a2.39,2.39,0,0,1-.88.71,2.7,2.7,0,0,1-1.15.23,2.67,2.67,0,0,1-2-.8,3.09,3.09,0,0,1-.75-2.19,3,3,0,0,1,.76-2.14,2.61,2.61,0,0,1,2-.81,2.71,2.71,0,0,1,1.28.28,1.71,1.71,0,0,1,.78.81v-.9h1.41Zm-1.37-2.44a1.89,1.89,0,0,0-.44-1.33,1.84,1.84,0,0,0-2.49,0,2.29,2.29,0,0,0,0,2.72,1.79,1.79,0,0,0,2.48,0A1.94,1.94,0,0,0,103.17,150.44Z"/><path id="_Compound_Path_17" data-name="&lt;Compound Path&gt;" class="cls-1" d="M107.26,155.82h-1.44l1.68-3.08-2.25-5h1.55l1.13,2.86q.1.26.17.53a5.1,5.1,0,0,1,.12.55,6.38,6.38,0,0,1,.4-.93l0-.07,1.51-2.95h1.52Z"/></g></g></g></g></svg>