<?xml version="1.0" encoding="utf-8"?>
<!-- Generator: Adobe Illustrator 21.0.2, SVG Export Plug-In . SVG Version: 6.00 Build 0)  -->
<svg version="1.1" id="Layer_1" xmlns="http://www.w3.org/2000/svg" xmlns:xlink="http://www.w3.org/1999/xlink" x="0px" y="0px"
	 viewBox="0 0 119.6 155.8" style="enable-background:new 0 0 119.6 155.8;" xml:space="preserve">
<style type="text/css">
	.st0{fill:url(#SVGID_1_);}
	.st1{fill:url(#SVGID_2_);}
	.st2{fill:#FFFFFF;}
	.st3{fill:url(#SVGID_3_);}
	.st4{fill:url(#SVGID_4_);}
	.st5{fill:url(#SVGID_5_);}
	.st6{fill:#2593EB;}
	.st7{fill:#4AA4F2;}
</style>
<title>Asset 1</title>
<g id="wA63aF.tif">
	<g>
		
			<linearGradient id="SVGID_1_" gradientUnits="userSpaceOnUse" x1="78.3485" y1="83.2173" x2="78.3485" y2="157.1774" gradientTransform="matrix(1 0 0 -1 0 158)">
			<stop  offset="0" style="stop-color:#72BBFC"/>
			<stop  offset="0.2615" style="stop-color:#58A6EC"/>
			<stop  offset="0.7519" style="stop-color:#2B83D2"/>
			<stop  offset="1" style="stop-color:#1A76C8"/>
		</linearGradient>
		<path class="st0" d="M96.8,16.4c0-0.4,0-1.2-0.8-1.5c-2.7-1.4,0-9.7,2.7-11.9c1.3-0.9,2.2-1.4,3-1.7c1.5-0.6,2.7-0.5,3,0.4
			c1.9,10.3-4.6,28.7-6.1,33.1c-0.9,2.4-2.1,4.8-3.6,6.8c-1,1.3-1.4,2.4-1,3.9c0.8,2.8,0.4,5.7,0.1,8.5c-0.5,4.6-1.5,9.3-3.4,13.5
			c-1.2,2.7-3.1,6.4-5.9,7.2c0.4-2.7,0.4-2.7,0-4.4c-0.9-4.9-2.3-9.5-5.2-13.5c-1.9-2.7-5-4.5-8.4-4.6c-6.7-0.5-12.6,1.4-18.3,4.6
			c-0.4,0.1-0.6,0.4-1.2,0.6c-0.4-2.1,0.3-4,1-5.8c1.4-3.1,3.4-5.7,5.7-8.1c4-4.1,8.4-7.6,13.7-9.8c1.4-0.5,2.1-1.2,2.6-2.7
			c1-3.4,2.4-5,4.1-7.3C81.7,19,92.1,7.5,98.3,3.3c2.3-1.7,1.8-0.1,0.4,2.3c-1.2,2.1-2.2,7.6-2.6,9.2c-0.4,0-0.6,0-1.2,0
			c-4.6,1.4-9.4,11.3-9.4,16.8c0,1.8,1.2,2.3,2.6,1.5C89.3,32.4,96.5,27.2,96.8,16.4z"/>
	</g>
</g>
<g id="xEMTE6.tif">
	<g>
		
			<linearGradient id="SVGID_2_" gradientUnits="userSpaceOnUse" x1="18.2544" y1="49.2718" x2="94.7773" y2="93.4522" gradientTransform="matrix(1 0 0 -1 0 158)">
			<stop  offset="0" style="stop-color:#0062B7"/>
			<stop  offset="0.8673" style="stop-color:#69B4F6"/>
		</linearGradient>
		<path class="st1" d="M88.2,130.3c-0.4,0.5-0.6,0.4-24.2,0.4c-4.8,0-27.1,0-32,0c-1.3,0-2.8-3.2-5.2-7.2
			c-12.1-20.9-22-38.3-24.9-43c-0.3-3.1,8-12.5,20.6-36.2c-0.4-0.4-1.9,31.2,24.6,24c3.6-1.4,7-3.2,10.1-5.4c1.5-1,3.1-2.2,4.5-3.4
			c1.3-1.2,2.8-1.8,4.4-1.9c4.3-0.4,7.9,0.9,10.6,4.5c1.4,1.9,1.3,4.1,0.8,6.3c-0.8,3.5-1.4,7.1-1.2,10.7c0.3,4.5,1.5,8.5,4.8,11.7
			c2.6,2.6,5.7,4.3,9.2,5.2c5.5,1.4,10.8,0.4,16-1.7c1.5-0.6,3-1.3,4.4-1.9l0,0c-0.6,1.8-1.8,3.4-2.8,4.9c-2.8,4.9-5.9,9.8-8.8,14.7
			c-2.2,3.9-4.5,7.7-6.8,11.6C92.3,123.4,88.3,130.2,88.2,130.3z"/>
		<path class="st2" d="M76.6,119c0,0,0-0.1,0.1-0.1C76.8,119,76.7,119,76.6,119L76.6,119z"/>
	</g>
</g>
<g id="CgVj0D.tif">
	<g>
		
			<linearGradient id="SVGID_3_" gradientUnits="userSpaceOnUse" x1="21.7907" y1="41.863" x2="84.9718" y2="78.3406" gradientTransform="matrix(1 0 0 -1 0 158)">
			<stop  offset="0" style="stop-color:#0971CC"/>
			<stop  offset="0.2387" style="stop-color:#1F85DE"/>
			<stop  offset="0.4739" style="stop-color:#3094EC"/>
		</linearGradient>
		<path class="st3" d="M101.4,108.2c0.1,0.4-0.1,0.6-0.4,0.9c-2.7,4.4-5.3,8.8-8,13.3c-1,1.8-3.4,5.9-4.4,7.6
			c-0.9,1.4-4.3,0.9-11.1,0.9c-9.2,0-9.2,0-17.9-0.1c-8.1,0-13.3,0-20.2,0c-10.3,0-9.4-0.3-13-6.7c-3.9-6.8-10.6-18.8-13.3-23.5
			c-1.9-3.4-8.4-14.8-11.3-20c-0.5-0.9,0.9-8,6.7-8.8c1.5-0.6,3.4-0.8,5-0.9c0.5,0,4.1,0,4.3,0c2.6,0,5.3,0.4,7.7,0.9
			c8.2,1.7,15.9,4.8,22.3,10.6c4.1,3.6,7.6,7.7,11,12c2.3,3.1,4.6,6.2,7.2,9c3.1,3.5,6.6,6.6,10.6,8.9c3.2,1.9,6.8,2.4,10.4,1.9
			c5.2-0.6,9.5-3,13.7-5.9C101,108.3,101.2,108.2,101.4,108.2L101.4,108.2z"/>
		<path class="st2" d="M69.6,122.9l0.1-0.1v0.1H69.6L69.6,122.9z"/>
	</g>
</g>
<g id="omNHVQ.tif">
	<g>
		
			<linearGradient id="SVGID_4_" gradientUnits="userSpaceOnUse" x1="32.1099" y1="27.3437" x2="49.3404" y2="57.1878" gradientTransform="matrix(1 0 0 -1 0 158)">
			<stop  offset="0" style="stop-color:#007EF5"/>
			<stop  offset="1" style="stop-color:#6DB8F9"/>
		</linearGradient>
		<path class="st4" d="M76.6,125.9c-0.8,1.8-1.9,3.4-3.5,4.6c-0.3,0.1-0.5,0.3-0.8,0.3c-3.6,0-7.2,0-10.8,0c0-0.4-3.6,0-3.9,0
			c-3.9,0.1-6.2,0-11.3,0c-6.4,0-7.7,0.3-13.4-0.1c-0.6,0-1.3-0.4-1.8-0.9c-1.9-2.6-5-8.4-5.8-9.5c-0.5-0.9-5-8.9-14.2-25.4
			c-0.6-1.3,4.1,4.8,20.7,7.3c1.4,0.1,2.7,0.3,4.1,0.4c2.6,0.3,5,0.5,7.6,0.8c5.3,0.5,10.6,1.2,15.6,3.4c4.5,1.9,8.5,4.5,12,8
			c2.6,2.6,4.8,5.4,5.7,9.2C76.7,124.7,76.7,125.3,76.6,125.9z"/>
		
			<linearGradient id="SVGID_5_" gradientUnits="userSpaceOnUse" x1="14.4353" y1="64.5298" x2="14.6716" y2="64.5298" gradientTransform="matrix(1 0 0 -1 0 158)">
			<stop  offset="0" style="stop-color:#FFFFFF"/>
			<stop  offset="1" style="stop-color:#000000"/>
		</linearGradient>
		<path class="st5" d="M14.4,93.6c0-0.1,0-0.1,0-0.3c0.1,0,0.1,0,0.3,0.1C14.6,93.5,14.6,93.5,14.4,93.6z"/>
	</g>
</g>
<g id="fbSGIH.tif">
	<g>
		<path class="st6" d="M0,80.1c0.6-0.6,1-1.4,1.4-2.2c9.4-16.2,18.7-32.5,28.1-48.6c0.1-0.3,0.4-0.5,0.4-0.9c13.4,0,26.8,0,40.2,0
			c0.3,0.5,0.8,0.9,0.4,1.5c-0.4,0.6-0.9,0.5-1.5,0.5c-12.2,0-24.5,0-36.7,0c-0.8,0-1.2,0.3-1.5,0.9c-9.3,16-18.4,32-27.7,48.1
			c-0.4,0.6-0.4,1,0,1.7c9.3,16.1,18.6,32.1,27.8,48.2c0.3,0.5,0.6,0.6,1.3,0.6c18.6,0,37.1,0,55.7,0c0.6,0,1-0.3,1.3-0.8
			c9.2-16,18.4-32,27.7-47.9c0.4-0.8,0.4-1.3,0-2.1c-6.4-11-12.8-22-19.1-33.1c-0.4-0.8-1-1.4-0.1-2.2c0.6-0.5,1.2-0.1,1.9,1.2
			c6.6,11.5,13.3,22.9,19.8,34.3c0.4,0.6,0.3,1,0,1.7c-9.7,16.8-19.3,33.5-29,50.3c-0.4,0.6-0.8,0.8-1.4,0.8c-19.3,0-38.5,0-57.9,0
			c-1,0-1.4-0.5-1.8-1.3c-9.5-16.5-19.1-33-28.6-49.5C0.5,81,0.4,80.5,0,80.3C0,80.3,0,80.2,0,80.1z"/>
	</g>
</g>
<g id="FlclD4.tif">
	<g>
		<path class="st7" d="M83,145.3c0.8,3.1,1.7,6.2,2.4,9.4c-0.9,0-1.7,0-2.6,0c-0.4,0-0.4-0.1-0.4-0.4c-0.1-1.2-0.3-2.3-0.4-3.5
			c0-0.3-0.1-0.5-0.1-0.8c-0.4,0-0.4,0.4-0.5,0.5c-0.5,1-1,2.2-1.5,3.4c-0.1,0.4-0.3,0.8-0.9,0.6c-0.5-0.1-1.2,0.1-1.4-0.6
			c-0.3-0.9-0.8-1.9-1.2-2.8c-0.1-0.3-0.3-0.5-0.4-0.8c-0.5,1-0.6,1.9-0.9,2.8c-0.4,1.7-0.4,1.7-2.1,1.7c-0.4,0-0.8,0-1.3,0
			c0.6-1.8,1.3-3.5,1.8-5.2c0.5-1.4,1-2.8,1.4-4.3c0.4,0,0.8,0,1.2,0c0.6,1.7,1.4,3.2,2.2,4.8c0.4,0.6,0.5,0.6,0.8,0
			c0.8-1.5,1.5-3.2,2.2-4.8C81.8,145.3,82.4,145.3,83,145.3z"/>
		<path class="st7" d="M47.8,145.3c1.3,1.7,2.8,3.2,4.5,4.8c0.1,0.1,0.3,0.4,0.5,0.3c0.1-0.1,0.1-0.4,0.1-0.5c0-1.2,0-2.2-0.1-3.4
			c0-0.4,0-0.6,0.5-0.6s1.2,0,1.7-0.1c0.5-0.1,0.5,0.1,0.5,0.5c0,1.9,0,3.9,0,5.7c0,0.8,0,1.5,0.1,2.4c0,0.4-0.1,0.5-0.5,0.5H55
			c-1.5,0.3-2.6-0.3-3.5-1.5c-0.8-1-1.7-1.9-2.6-2.8c-0.1-0.3-0.4-0.4-0.6-0.5c-0.1,0.6,0,1.3,0,1.9c0,0.8,0.1,1.5,0.3,2.3
			c0,0.4,0,0.5-0.4,0.5c-0.6,0-1.3,0-1.9,0.1c-0.4,0.1-0.5-0.1-0.5-0.5c0-1.3,0-2.7,0-4c0-1.7-0.1-3.2-0.3-4.9
			C46.1,145.3,47,145.3,47.8,145.3z"/>
		<path class="st7" d="M58.3,145.3c1,0.3,2.1,0,3.1,0.1c0.4,0,0.8,0,1.2,0.3c1.7,0.9,2.8,2.3,3.4,4.1c0.1,0.3,0.1,0.6,0,0.9
			c-0.5,1.3-1.3,2.4-2.4,3.4c-0.6,0.5-1.2,0.8-2.1,0.6c-1.2,0-2.3,0-3.6,0c-0.3,0-0.5,0-0.5-0.4c0.1-3-0.1-6.1-0.1-9
			C57.6,145.3,57.9,145.3,58.3,145.3z M59.9,150.6c0,0.3,0,0.5,0.1,0.9c0,0.8,0.4,1,1.2,0.8c0.8-0.3,1.3-0.8,1.9-1.4
			c0.4-0.4,0.4-0.9,0-1.3c-0.6-0.6-1.4-1-2.2-1.4c-0.5-0.3-0.8,0-0.8,0.5C59.9,149.1,59.9,149.8,59.9,150.6z"/>
		<path class="st7" d="M41,145.3c0.3,1.7,0.8,3.2,1.3,4.8c0.5,1.5,1,3.1,1.5,4.6c-0.9,0-1.7,0-2.6,0c-0.4,0-0.5-0.3-0.4-0.5
			c0.1-1-0.4-1.3-1.3-1.3c-0.5,0-1,0-1.5-0.1c-0.5,0-0.6,0.1-0.8,0.5c-0.4,1.3-0.5,1.3-1.9,1.3c-1.5,0-1.5,0-1-1.4
			c1.2-2.6,1.9-5.3,2.7-8C38.3,145.3,39.7,145.3,41,145.3z M39.1,147.7c-0.4,0.4-0.5,0.9-0.8,1.3c-0.5,1.3-0.5,1.4,0.9,1.4
			c0.1,0,0.4,0,0.5,0c0.4,0,0.5-0.1,0.4-0.5C39.8,149.1,39.4,148.5,39.1,147.7z"/>
		<path class="st7" d="M93.3,145.3c0.3,1.7,0.8,3.2,1.3,4.8c0.5,1.5,1,3.1,1.5,4.6c-0.9,0-1.7,0-2.6,0c-0.4,0-0.5-0.3-0.4-0.5
			c0.1-1-0.4-1.3-1.3-1.3c-0.5,0-1,0-1.5-0.1c-0.5,0-0.6,0.1-0.8,0.5c-0.4,1.3-0.5,1.3-1.9,1.3c-1.5,0-1.5,0-1-1.4
			c1.2-2.6,1.9-5.3,2.7-8C90.6,145.3,91.9,145.3,93.3,145.3z M91.4,150.4c1.3,0,1.3,0,0.8-1.2c0,0,0-0.1-0.1-0.1
			c-0.3-0.4-0.4-1.2-0.8-1.2c-0.5,0-0.5,0.8-0.8,1.2C90,150.3,90.1,150.4,91.4,150.4z"/>
		<path class="st7" d="M29.3,145.3c-0.1,1-0.1,2.1-0.3,3.1c-0.1,1.2,0.1,2.3,0.1,3.4c0,0.4,0.3,0.6,0.6,0.5c0.8-0.1,1.5-0.1,2.4-0.3
			c-0.1,0.8-0.5,1.5-0.5,2.4c0,0.3-0.3,0.4-0.4,0.4c-1.4,0-3,0-4.4,0c-0.4,0-0.5-0.1-0.5-0.5c0-1.2,0-2.3,0-3.5c0-1.5,0-3.1-0.3-4.6
			c0-0.3-0.1-0.5,0.1-0.8C27.2,145.3,28.2,145.3,29.3,145.3z"/>
		<path class="st7" d="M70.4,145.3c-0.3,3-0.3,5.9,0.1,8.9c0,0.4,0,0.5-0.4,0.5c-0.6,0-1.4,0-2.1,0.1c-0.4,0.1-0.5-0.1-0.5-0.5
			c0.1-1.2,0.1-2.2,0.1-3.4c0.1-1.8-0.1-3.7-0.3-5.5C68.3,145.3,69.3,145.3,70.4,145.3z"/>
	</g>
</g>
</svg>
