<svg xmlns="http://www.w3.org/2000/svg" viewBox="0 0 746.1 512"><defs><style>.cls-1{fill:#ccc;}.cls-2{fill:#848484;}.cls-3{fill:#1281e1;}.cls-4{fill:#56a8ee;}.cls-5{fill:#ddd;}.cls-6{fill:#dbd9dc;}.cls-7{fill:#fff;}.cls-8{fill:#005fbb;}</style></defs><title>team</title><g id="Layer_2" data-name="Layer 2"><g id="Capa_1" data-name="Capa 1"><rect class="cls-1" x="546.16" y="249.49" width="90.57" height="77.63"/><path class="cls-2" d="M546.16,281.48a83.42,83.42,0,0,0,90.49,0v-32H546.16Z"/><path class="cls-3" d="M722,488.8l5.08-133.75a38.88,38.88,0,0,0-24.84-37.78l-58.82-20.16a5.11,5.11,0,0,0-6.27,2.38,51.78,51.78,0,0,1-91.6,0,5.23,5.23,0,0,0-6.27-2.38l-58.9,20.16a39,39,0,0,0-24.84,37.78l5.08,133.75Z"/><path class="cls-4" d="M513.77,385.3l-52.39-52.07a38.63,38.63,0,0,0-5.79,21.91l5.08,133.75h53.1Z"/><path class="cls-4" d="M669,385.3l52.39-52.07a38.63,38.63,0,0,1,5.79,21.91l-5.08,133.75H669Z"/><path class="cls-5" d="M662.52,184.88V165.43a71.12,71.12,0,0,0-142.24,0V184.8H520a9.85,9.85,0,0,0-2.14.24c-6.27,1.19-10.56,7.22-10.56,13.65v4.68c0,6.19,4,12,10,13.41a13.64,13.64,0,0,0,4,.32,6.24,6.24,0,0,1,6.59,5.24,64.63,64.63,0,0,0,127.16,0,6.24,6.24,0,0,1,6.27-5.24h1.35a12.94,12.94,0,0,0,12.94-12.94v-6.43A13.17,13.17,0,0,0,662.52,184.88Z"/><path class="cls-1" d="M552.58,210.76V159a71.09,71.09,0,0,1,41.35-64.53c-.87,0-1.67-.16-2.54-.16a71.1,71.1,0,0,0-71.12,71.12V184.8H520a9.85,9.85,0,0,0-2.14.24c-6.27,1.19-10.56,7.22-10.56,13.65v4.68c0,6.19,4,12,10,13.41a13.64,13.64,0,0,0,4,.32,6.24,6.24,0,0,1,6.59,5.24,64.62,64.62,0,0,0,63.58,53c.87,0,1.75-.08,2.62-.08A71,71,0,0,1,552.58,210.76Z"/><path class="cls-1" d="M591.4,94.32a71.1,71.1,0,0,0-71.12,71.12V184.8h8.57a6.56,6.56,0,0,0,6-4l8-20.16a12.93,12.93,0,0,1,12-8.1h73a12.88,12.88,0,0,1,12,8.1l8,20.16a6.4,6.4,0,0,0,6,4h8.57V165.43A71.1,71.1,0,0,0,591.4,94.32Z"/><path class="cls-2" d="M520.28,165.43V184.8h8.57a6.56,6.56,0,0,0,6-4l8-20.16a12.89,12.89,0,0,1,10-7.86,71,71,0,0,1,41-58.34c-.87,0-1.67-.16-2.54-.16A71.22,71.22,0,0,0,520.28,165.43Z"/><path class="cls-6" d="M663.23,488.8H519.57a13,13,0,0,1-12.94-12.22l-5-90.57a13,13,0,0,1,12.94-13.65H668.31A13,13,0,0,1,681.25,386l-5,90.57A13.09,13.09,0,0,1,663.23,488.8Z"/><circle class="cls-7" cx="591.4" cy="433.8" r="16.19"/><path class="cls-8" d="M591.4,353a77.5,77.5,0,0,0,72.07-49l-20-6.83a5.11,5.11,0,0,0-6.27,2.38,51.78,51.78,0,0,1-91.6,0,5.23,5.23,0,0,0-6.27-2.38l-20,6.83A77.5,77.5,0,0,0,591.4,353Z"/><path d="M740.15,482.85H728l5.08-127.55a44.77,44.77,0,0,0-28.57-43.58c-.08,0-.16-.08-.24-.08l-61.67-21.19v-31a70.27,70.27,0,0,0,18.18-35.72c0-.16.32-.4.4-.48a19,19,0,0,0,5.16-.32c8.73-1.83,15.08-9.92,15.08-19.37v-5A19.47,19.47,0,0,0,668.47,180v-14.6a77.07,77.07,0,0,0-154.14,0V180a19.34,19.34,0,0,0-12.94,18.57v5c0,9.45,6.35,17.54,15.08,19.37a18.26,18.26,0,0,0,5.08.32.72.72,0,0,1,.48.48,70.27,70.27,0,0,0,18.18,35.72v31l-61.67,21.19c-.08,0-.16.08-.24.08a44.7,44.7,0,0,0-28.57,43.58l5.08,127.47H442.65a6,6,0,0,0,0,11.91H740.15a6,6,0,0,0,0-11.91Zm-58-6,5-90.57a18.92,18.92,0,0,0-1.67-8.89l34.21-34.21a32.86,32.86,0,0,1,1.59,11.51L716.1,482.85H680.77A20.4,20.4,0,0,0,682.12,476.9Zm-130-207.32a70.39,70.39,0,0,0,78.58,0v29.29a45.76,45.76,0,0,1-78.58,0V269.57Zm-31.35-58.18a5.18,5.18,0,0,1-1.9-.16c-3.17-.63-5.56-4-5.56-7.7v-5c0-3.73,2.46-7,5.64-7.54a6.9,6.9,0,0,1,4.76.79,6,6,0,1,0,6-10.32,19.7,19.7,0,0,0-3.49-1.59V165.43a65.17,65.17,0,0,1,130.33,0v14.29l-1,.24a5.95,5.95,0,1,0,2.7,11.59,16.14,16.14,0,0,1,5.56-.4,7.42,7.42,0,0,1,5.64,7.46v5c0,3.73-2.38,7.06-5.56,7.7a7.73,7.73,0,0,1-1.9.16,12.6,12.6,0,0,0-13,10.16,58.68,58.68,0,0,1-115.41,0A12.25,12.25,0,0,0,520.76,211.39ZM482.5,322.91,516,311.4A83.53,83.53,0,0,0,624.82,352a6,6,0,0,0-4.76-11,71.73,71.73,0,0,1-92.71-33.58l13.33-4.6a57.73,57.73,0,0,0,101.44,0l13.33,4.6a72.33,72.33,0,0,1-16.27,21.27,6,6,0,0,0-.48,8.41,6,6,0,0,0,8.41.48,84.31,84.31,0,0,0,19.68-26.27l33.5,11.51a33.17,33.17,0,0,1,13.33,9.52l-36.27,36.27a18.93,18.93,0,0,0-9-2.3H514.56a18.62,18.62,0,0,0-9,2.3l-36.43-36.12A32.6,32.6,0,0,1,482.5,322.91Zm-21,31.91a32.86,32.86,0,0,1,1.59-11.51l34.21,34.05a19.43,19.43,0,0,0-1.75,9l5,90.57a19,19,0,0,0,1.27,6H466.7Zm58,128a7,7,0,0,1-7-6.59l-5-90.57a7.05,7.05,0,0,1,7-7.38H668.31a7.05,7.05,0,0,1,7,7.38l-5,90.57a7,7,0,0,1-7,6.59Z"/><path d="M591.4,411.73a22.15,22.15,0,1,0,22.15,22.15A22.15,22.15,0,0,0,591.4,411.73Zm0,32.31a10.24,10.24,0,1,1,10.24-10.24A10.26,10.26,0,0,1,591.4,444Z"/><rect class="cls-1" x="109.46" y="249.49" width="90.57" height="77.63"/><path class="cls-2" d="M109.46,281.48a83.42,83.42,0,0,0,90.49,0v-32H109.46Z"/><path class="cls-3" d="M285.35,488.8l5.08-133.75a38.88,38.88,0,0,0-24.84-37.78l-58.82-20.16a5.11,5.11,0,0,0-6.27,2.38,51.78,51.78,0,0,1-91.6,0,5.23,5.23,0,0,0-6.27-2.38l-58.9,20.16a39,39,0,0,0-24.84,37.78L24,488.8Z"/><path class="cls-4" d="M77.07,385.3,24.69,333.23a38.63,38.63,0,0,0-5.79,21.91L24,488.88h53.1Z"/><path class="cls-4" d="M232.33,385.3l52.39-52.07a38.63,38.63,0,0,1,5.79,21.91l-5.08,133.75h-53.1Z"/><path class="cls-5" d="M225.82,184.88V165.43a71.12,71.12,0,0,0-142.24,0V184.8h-.24a9.85,9.85,0,0,0-2.14.24c-6.27,1.19-10.56,7.22-10.56,13.65v4.68c0,6.19,4,12,10,13.41a13.64,13.64,0,0,0,4,.32,6.24,6.24,0,0,1,6.59,5.24,64.63,64.63,0,0,0,127.16,0,6.24,6.24,0,0,1,6.27-5.24H226a12.94,12.94,0,0,0,12.94-12.94v-6.43A13.17,13.17,0,0,0,225.82,184.88Z"/><path class="cls-1" d="M115.89,210.76V159a71.09,71.09,0,0,1,41.35-64.53c-.87,0-1.67-.16-2.54-.16a71.1,71.1,0,0,0-71.12,71.12V184.8h-.24a9.85,9.85,0,0,0-2.14.24c-6.27,1.19-10.56,7.22-10.56,13.65v4.68c0,6.19,4,12,10,13.41a13.64,13.64,0,0,0,4,.32,6.24,6.24,0,0,1,6.59,5.24,64.62,64.62,0,0,0,63.58,53c.87,0,1.75-.08,2.62-.08A71,71,0,0,1,115.89,210.76Z"/><path class="cls-1" d="M154.7,94.32a71.1,71.1,0,0,0-71.12,71.12V184.8h8.57a6.56,6.56,0,0,0,6-4l8-20.16a12.93,12.93,0,0,1,12-8.1h73a12.88,12.88,0,0,1,12,8.1l8,20.16a6.4,6.4,0,0,0,6,4h8.57V165.43A71.1,71.1,0,0,0,154.7,94.32Z"/><path class="cls-2" d="M83.58,165.43V184.8h8.57a6.56,6.56,0,0,0,6-4l8-20.16a12.89,12.89,0,0,1,10-7.86,71,71,0,0,1,41-58.34c-.87,0-1.67-.16-2.54-.16A71.22,71.22,0,0,0,83.58,165.43Z"/><path class="cls-6" d="M226.53,488.8H82.87a13,13,0,0,1-12.94-12.22l-5-90.57a13,13,0,0,1,12.94-13.65H231.61A13,13,0,0,1,244.55,386l-5,90.57A13.09,13.09,0,0,1,226.53,488.8Z"/><circle class="cls-7" cx="154.7" cy="433.8" r="16.19"/><path class="cls-8" d="M154.7,353a77.5,77.5,0,0,0,72.07-49l-20-6.83a5.11,5.11,0,0,0-6.27,2.38,51.78,51.78,0,0,1-91.6,0,5.23,5.23,0,0,0-6.27-2.38l-20,6.83A77.5,77.5,0,0,0,154.7,353Z"/><path d="M303.45,482.85H291.3l5.08-127.55a44.77,44.77,0,0,0-28.57-43.58c-.08,0-.16-.08-.24-.08L205.9,290.45v-31a70.27,70.27,0,0,0,18.18-35.72c0-.16.32-.4.4-.48a19,19,0,0,0,5.16-.32c8.73-1.83,15.08-9.92,15.08-19.37v-5A19.47,19.47,0,0,0,231.77,180v-14.6a77.07,77.07,0,0,0-154.14,0V180a19.34,19.34,0,0,0-12.94,18.57v5c0,9.45,6.35,17.54,15.08,19.37a18.26,18.26,0,0,0,5.08.32.72.72,0,0,1,.48.48,70.27,70.27,0,0,0,18.18,35.72v31L41.83,311.72c-.08,0-.16.08-.24.08A44.7,44.7,0,0,0,13,355.38L18.1,482.85H6a6,6,0,0,0,0,11.91H303.45a6,6,0,1,0,0-11.91Zm-58-6,5-90.57a18.92,18.92,0,0,0-1.67-8.89L283,343.23a32.86,32.86,0,0,1,1.59,11.51L279.4,482.85H244.08A20.4,20.4,0,0,0,245.42,476.9Zm-130-207.32a70.39,70.39,0,0,0,78.58,0v29.29a45.76,45.76,0,0,1-78.58,0V269.57ZM84.06,211.39a5.18,5.18,0,0,1-1.9-.16c-3.17-.63-5.56-4-5.56-7.7v-5c0-3.73,2.46-7,5.64-7.54a6.9,6.9,0,0,1,4.76.79,6,6,0,0,0,6-10.32,19.7,19.7,0,0,0-3.49-1.59V165.43a65.17,65.17,0,0,1,130.33,0v14.29l-1,.24a5.95,5.95,0,1,0,2.7,11.59,16.14,16.14,0,0,1,5.56-.4,7.42,7.42,0,0,1,5.64,7.46v5c0,3.73-2.38,7.06-5.56,7.7a7.73,7.73,0,0,1-1.9.16,12.6,12.6,0,0,0-13,10.16,58.68,58.68,0,0,1-115.41,0A12.25,12.25,0,0,0,84.06,211.39ZM45.8,322.91l33.5-11.51A83.53,83.53,0,0,0,188.12,352a6,6,0,0,0-4.76-11,71.73,71.73,0,0,1-92.71-33.58l13.33-4.6a57.73,57.73,0,0,0,101.44,0l13.33,4.6a72.33,72.33,0,0,1-16.27,21.27,6,6,0,0,0-.48,8.41,6,6,0,0,0,8.41.48,84.31,84.31,0,0,0,19.68-26.27l33.5,11.51a33.17,33.17,0,0,1,13.33,9.52l-36.27,36.27a18.93,18.93,0,0,0-9-2.3H77.87a18.62,18.62,0,0,0-9,2.3L32.46,332.52A32.6,32.6,0,0,1,45.8,322.91Zm-21,31.91a32.86,32.86,0,0,1,1.59-11.51l34.21,34.05a19.43,19.43,0,0,0-1.75,9l5,90.57a19,19,0,0,0,1.27,6H30Zm58,128a7,7,0,0,1-7-6.59l-5-90.57a7.05,7.05,0,0,1,7-7.38H231.61a7.05,7.05,0,0,1,7,7.38l-5,90.57a7,7,0,0,1-7,6.59Z"/><path d="M154.7,411.73a22.15,22.15,0,1,0,22.15,22.15A22.15,22.15,0,0,0,154.7,411.73Zm0,32.31a10.24,10.24,0,1,1,10.24-10.24A10.26,10.26,0,0,1,154.7,444Z"/><rect class="cls-1" x="316.4" y="203" width="114.1" height="97.8"/><path class="cls-2" d="M316.4,243.3a105.1,105.1,0,0,0,114,0V203h-114Z"/><path class="cls-3" d="M538,504.5,544.4,336a49,49,0,0,0-31.3-47.6L439,263a6.44,6.44,0,0,0-7.9,3,65.23,65.23,0,0,1-115.4,0,6.59,6.59,0,0,0-7.9-3l-74.2,25.4A49.13,49.13,0,0,0,202.3,336l6.4,168.5Z"/><path class="cls-4" d="M275.6,374.1l-66-65.6a48.67,48.67,0,0,0-7.3,27.6l6.4,168.5h66.9Z"/><path class="cls-4" d="M471.2,374.1l66-65.6a48.67,48.67,0,0,1,7.3,27.6l-6.4,168.5H471.2Z"/><path class="cls-5" d="M463,121.6V97.1a89.6,89.6,0,0,0-179.2,0v24.4h-.3a12.41,12.41,0,0,0-2.7.3c-7.9,1.5-13.3,9.1-13.3,17.2v5.9c0,7.8,5,15.1,12.6,16.9a17.19,17.19,0,0,0,5,.4,7.87,7.87,0,0,1,8.3,6.6,81.42,81.42,0,0,0,160.2,0,7.86,7.86,0,0,1,7.9-6.6h1.7a16.3,16.3,0,0,0,16.3-16.3v-8.1A16.59,16.59,0,0,0,463,121.6Z"/><path class="cls-1" d="M324.5,154.2V89A89.57,89.57,0,0,1,376.6,7.7c-1.1,0-2.1-.2-3.2-.2a89.58,89.58,0,0,0-89.6,89.6v24.4h-.3a12.41,12.41,0,0,0-2.7.3c-7.9,1.5-13.3,9.1-13.3,17.2v5.9c0,7.8,5,15.1,12.6,16.9a17.19,17.19,0,0,0,5,.4,7.87,7.87,0,0,1,8.3,6.6,81.41,81.41,0,0,0,80.1,66.8c1.1,0,2.2-.1,3.3-.1A89.41,89.41,0,0,1,324.5,154.2Z"/><path class="cls-1" d="M373.4,7.5a89.58,89.58,0,0,0-89.6,89.6v24.4h10.8a8.26,8.26,0,0,0,7.6-5.1L312.3,91a16.28,16.28,0,0,1,15.1-10.2h92A16.23,16.23,0,0,1,434.5,91l10.1,25.4a8.06,8.06,0,0,0,7.6,5.1H463V97.1A89.58,89.58,0,0,0,373.4,7.5Z"/><path class="cls-2" d="M283.8,97.1v24.4h10.8a8.26,8.26,0,0,0,7.6-5.1L312.3,91a16.24,16.24,0,0,1,12.6-9.9A89.39,89.39,0,0,1,376.6,7.6c-1.1,0-2.1-.2-3.2-.2A89.73,89.73,0,0,0,283.8,97.1Z"/><path class="cls-6" d="M463.9,504.5h-181a16.4,16.4,0,0,1-16.3-15.4L260.3,375a16.33,16.33,0,0,1,16.3-17.2H470.3A16.33,16.33,0,0,1,486.6,375l-6.3,114.1A16.5,16.5,0,0,1,463.9,504.5Z"/><circle class="cls-7" cx="373.4" cy="435.2" r="20.4"/><path class="cls-8" d="M373.4,333.4a97.63,97.63,0,0,0,90.8-61.7L439,263.1a6.44,6.44,0,0,0-7.9,3,65.23,65.23,0,0,1-115.4,0,6.59,6.59,0,0,0-7.9-3l-25.2,8.6A97.63,97.63,0,0,0,373.4,333.4Z"/><path d="M560.8,497H545.5l6.4-160.7a56.4,56.4,0,0,0-36-54.9c-.1,0-.2-.1-.3-.1l-77.7-26.7V215.5a88.53,88.53,0,0,0,22.9-45c0-.2.4-.5.5-.6a24,24,0,0,0,6.5-.4c11-2.3,19-12.5,19-24.4v-6.3a24.53,24.53,0,0,0-16.3-23.3V97.1a97.1,97.1,0,0,0-194.2,0v18.4A24.37,24.37,0,0,0,260,138.9v6.3c0,11.9,8,22.1,19,24.4a23,23,0,0,0,6.4.4.9.9,0,0,1,.6.6,88.53,88.53,0,0,0,22.9,45v39.1l-77.7,26.7c-.1,0-.2.1-.3.1a56.31,56.31,0,0,0-36,54.9L201.3,497H186a7.5,7.5,0,1,0,0,15H560.8a7.5,7.5,0,0,0,0-15Zm-73.1-7.5L494,375.4a23.83,23.83,0,0,0-2.1-11.2L535,321.1a41.4,41.4,0,0,1,2,14.5L530.5,497H486A25.7,25.7,0,0,0,487.7,489.5ZM323.9,228.3a88.68,88.68,0,0,0,99,0v36.9a57.65,57.65,0,0,1-99,0V228.3ZM284.4,155a6.52,6.52,0,0,1-2.4-.2c-4-.8-7-5-7-9.7v-6.3c0-4.7,3.1-8.8,7.1-9.5a8.69,8.69,0,0,1,6,1,7.53,7.53,0,0,0,7.6-13,24.82,24.82,0,0,0-4.4-2V97.1a82.1,82.1,0,0,1,164.2,0v18l-1.3.3a7.5,7.5,0,1,0,3.4,14.6,20.34,20.34,0,0,1,7-.5c4.1.8,7.1,4.8,7.1,9.4v6.3c0,4.7-3,8.9-7,9.7a9.74,9.74,0,0,1-2.4.2c-7.7-.6-14.9,5.1-16.4,12.8a73.93,73.93,0,0,1-145.4,0A15.43,15.43,0,0,0,284.4,155ZM236.2,295.5,278.4,281a105.24,105.24,0,0,0,137.1,51.1,7.52,7.52,0,1,0-6-13.8A90.37,90.37,0,0,1,292.7,276l16.8-5.8a72.73,72.73,0,0,0,127.8,0l16.8,5.8a91.13,91.13,0,0,1-20.5,26.8,7.56,7.56,0,0,0-.6,10.6,7.53,7.53,0,0,0,10.6.6,106.22,106.22,0,0,0,24.8-33.1l42.2,14.5a41.79,41.79,0,0,1,16.8,12l-45.7,45.7a23.85,23.85,0,0,0-11.4-2.9H276.6a23.46,23.46,0,0,0-11.3,2.9l-45.9-45.5A41.08,41.08,0,0,1,236.2,295.5Zm-26.4,40.2a41.4,41.4,0,0,1,2-14.5l43.1,42.9a24.48,24.48,0,0,0-2.2,11.4L259,489.6a23.94,23.94,0,0,0,1.6,7.5H216.3ZM282.9,497a8.78,8.78,0,0,1-8.8-8.3l-6.3-114.1a8.88,8.88,0,0,1,8.8-9.3H470.3a8.88,8.88,0,0,1,8.8,9.3l-6.3,114.1A8.78,8.78,0,0,1,464,497Z"/><path d="M373.4,407.4a27.9,27.9,0,1,0,27.9,27.9A27.91,27.91,0,0,0,373.4,407.4Zm0,40.7a12.9,12.9,0,1,1,12.9-12.9A12.93,12.93,0,0,1,373.4,448.1Z"/></g></g></svg>